<svg width="43" height="43" viewBox="0 0 43 43" fill="none" xmlns="http://www.w3.org/2000/svg">
<g clip-path="url(#clip0_2427_9521)">
<path d="M24.5723 31.0895C24.2242 31.0895 23.8903 30.9512 23.6442 30.7051C23.398 30.4589 23.2598 30.1251 23.2598 29.777V14.027C23.2598 13.6789 23.398 13.345 23.6442 13.0989C23.8903 12.8528 24.2242 12.7145 24.5723 12.7145C24.9204 12.7145 25.2542 12.8528 25.5003 13.0989C25.7465 13.345 25.8848 13.6789 25.8848 14.027V29.777C25.8848 30.1251 25.7465 30.4589 25.5003 30.7051C25.2542 30.9512 24.9204 31.0895 24.5723 31.0895Z" fill="#1D2939"/>
<path d="M35.9473 23.2145H25.1515C24.8034 23.2145 24.4696 23.0762 24.2234 22.8301C23.9773 22.5839 23.839 22.2501 23.839 21.902C23.839 21.5539 23.9773 21.22 24.2234 20.9739C24.4696 20.7278 24.8034 20.5895 25.1515 20.5895H35.9473C37.3945 20.5895 38.5723 19.4117 38.5723 17.9645C38.5723 16.5172 37.3945 15.3395 35.9473 15.3395H24.5723C24.2242 15.3395 23.8903 15.2012 23.6442 14.9551C23.398 14.7089 23.2598 14.3751 23.2598 14.027C23.2598 13.6789 23.398 13.345 23.6442 13.0989C23.8903 12.8528 24.2242 12.7145 24.5723 12.7145H35.9473C38.8418 12.7145 41.1973 15.07 41.1973 17.9645C41.1973 20.859 38.8418 23.2145 35.9473 23.2145Z" fill="#1D2939"/>
<path d="M37.6973 31.0895H24.714C24.3659 31.0895 24.0321 30.9512 23.7859 30.7051C23.5398 30.4589 23.4015 30.1251 23.4015 29.777C23.4015 29.4289 23.5398 29.095 23.7859 28.8489C24.0321 28.6028 24.3659 28.4645 24.714 28.4645H37.6973C39.1445 28.4645 40.3223 27.2867 40.3223 25.8395C40.3223 24.3922 39.1445 23.2145 37.6973 23.2145H24.5723C24.2242 23.2145 23.8903 23.0762 23.6442 22.8301C23.398 22.5839 23.2598 22.2501 23.2598 21.902C23.2598 21.5539 23.398 21.22 23.6442 20.9739C23.8903 20.7278 24.2242 20.5895 24.5723 20.5895H37.6973C40.5918 20.5895 42.9473 22.945 42.9473 25.8395C42.9473 28.734 40.5918 31.0895 37.6973 31.0895ZM19.3223 31.0895C18.9742 31.0895 18.6403 30.9512 18.3942 30.7051C18.148 30.4589 18.0098 30.1251 18.0098 29.777V14.027C18.0098 13.6789 18.148 13.345 18.3942 13.0989C18.6403 12.8528 18.9742 12.7145 19.3223 12.7145C19.6704 12.7145 20.0042 12.8528 20.2503 13.0989C20.4965 13.345 20.6348 13.6789 20.6348 14.027V29.777C20.6348 30.1251 20.4965 30.4589 20.2503 30.7051C20.0042 30.9512 19.6704 31.0895 19.3223 31.0895Z" fill="#1D2939"/>
<path d="M18.7418 23.2145H7.94604C5.05154 23.2145 2.69604 20.859 2.69604 17.9645C2.69604 15.07 5.05154 12.7145 7.94604 12.7145H19.321C19.6691 12.7145 20.003 12.8528 20.2491 13.0989C20.4953 13.345 20.6335 13.6789 20.6335 14.027C20.6335 14.3751 20.4953 14.7089 20.2491 14.9551C20.003 15.2012 19.6691 15.3395 19.321 15.3395H7.94604C6.49879 15.3395 5.32104 16.5172 5.32104 17.9645C5.32104 19.4117 6.49879 20.5895 7.94604 20.5895H18.7418C19.0899 20.5895 19.4237 20.7278 19.6699 20.9739C19.916 21.22 20.0543 21.5539 20.0543 21.902C20.0543 22.2501 19.916 22.5839 19.6699 22.8301C19.4237 23.0762 19.0899 23.2145 18.7418 23.2145Z" fill="#1D2939"/>
<path d="M19.1805 31.0896H6.19727C3.30277 31.0896 0.947266 28.7341 0.947266 25.8396C0.947266 22.9451 3.30277 20.5896 6.19727 20.5896H19.3223C19.6704 20.5896 20.0042 20.7279 20.2503 20.974C20.4965 21.2202 20.6348 21.554 20.6348 21.9021C20.6348 22.2502 20.4965 22.584 20.2503 22.8302C20.0042 23.0763 19.6704 23.2146 19.3223 23.2146H6.19727C4.75002 23.2146 3.57227 24.3923 3.57227 25.8396C3.57227 27.2868 4.75002 28.4646 6.19727 28.4646H19.1805C19.5286 28.4646 19.8625 28.6029 20.1086 28.849C20.3547 29.0952 20.493 29.429 20.493 29.7771C20.493 30.1252 20.3547 30.459 20.1086 30.7052C19.8625 30.9513 19.5286 31.0896 19.1805 31.0896ZM16.6973 20.5896C16.3866 20.5876 16.0867 20.4756 15.8507 20.2736C15.6148 20.0715 15.458 19.7923 15.4083 19.4857C15.3586 19.179 15.4191 18.8646 15.5792 18.5984C15.7392 18.3321 15.9884 18.1311 16.2825 18.0311L26.7825 14.5311C27.1087 14.4367 27.4587 14.4722 27.7592 14.6302C28.0598 14.7882 28.2875 15.0563 28.3948 15.3785C28.502 15.7006 28.4804 16.0518 28.3345 16.3584C28.1886 16.6649 27.9297 16.9032 27.612 17.0231L17.112 20.5231C16.978 20.5663 16.8381 20.5888 16.6973 20.5896Z" fill="#1D2939"/>
<path d="M16.697 24.9661C16.3863 24.9641 16.0864 24.8521 15.8505 24.65C15.6145 24.4479 15.4578 24.1688 15.4081 23.8621C15.3583 23.5555 15.4189 23.2411 15.5789 22.9748C15.7389 22.7086 15.9881 22.5076 16.2822 22.4076L26.7822 18.9076C27.1084 18.8132 27.4584 18.8487 27.759 19.0067C28.0595 19.1646 28.2873 19.4328 28.3945 19.7549C28.5017 20.0771 28.4801 20.4283 28.3342 20.7348C28.1883 21.0414 27.9294 21.2796 27.6117 21.3996L17.1117 24.8996C16.9777 24.9428 16.8378 24.9652 16.697 24.9661ZM16.697 29.3411C16.3863 29.3391 16.0864 29.2271 15.8505 29.025C15.6145 28.8229 15.4578 28.5438 15.4081 28.2371C15.3583 27.9305 15.4189 27.6161 15.5789 27.3498C15.7389 27.0836 15.9881 26.8826 16.2822 26.7826L26.7822 23.2826C26.9459 23.2281 27.1186 23.2064 27.2906 23.2187C27.4627 23.231 27.6306 23.277 27.7848 23.3542C27.939 23.4314 28.0765 23.5382 28.1894 23.6686C28.3024 23.7989 28.3885 23.9502 28.443 24.1138C28.4975 24.2774 28.5192 24.4502 28.5069 24.6222C28.4946 24.7942 28.4485 24.9621 28.3713 25.1163C28.2941 25.2706 28.1873 25.4081 28.057 25.521C27.9267 25.6339 27.7754 25.7201 27.6117 25.7746L17.1117 29.2746C16.9777 29.3178 16.8378 29.3402 16.697 29.3411Z" fill="#1D2939"/>
</g>
<defs>
<clipPath id="clip0_2427_9521">
<rect width="42" height="42" fill="white" transform="translate(0.947266 0.467407)"/>
</clipPath>
</defs>
</svg>
