<svg width="46" height="43" viewBox="0 0 46 43" fill="none" xmlns="http://www.w3.org/2000/svg">
<g clip-path="url(#clip0_2427_9505)">
<path d="M24.6856 3.33191C24.6682 3.23864 24.6564 3.14443 24.6501 3.04977C24.5578 1.72102 25.5581 0.568795 26.8866 0.475184C28.2167 0.382511 29.3685 1.38409 29.4614 2.71284C29.5543 4.04159 28.5536 5.19382 27.2251 5.28743C27.141 5.29381 27.0577 5.29493 26.9763 5.29174C26.9225 5.30562 26.8902 5.31219 26.8439 5.35309C26.7071 5.5662 27.1917 5.52643 26.8622 6.45785C26.8622 6.45785 26.86 6.56009 26.8234 6.66233C26.7975 7.01989 26.66 8.07944 26.6403 8.64373C26.7103 8.72552 26.73 8.76529 26.7223 8.96358C26.6912 9.23166 26.6296 9.88862 26.5308 10.3096C26.4469 10.6703 26.2996 10.7392 26.1809 10.8275C26.0139 11.5749 25.9698 12.194 25.5416 13.1018C25.5027 13.7899 25.4543 13.9773 25.3101 14.3133C25.2939 15.3265 25.3639 15.4773 24.6803 17.0817C24.5038 17.8321 24.6717 18.3511 24.858 19.1308C25.0486 19.932 25.5772 20.2669 25.6558 21.0874C25.841 23.0199 25.7946 24.3355 25.38 25.8507L25.7419 26.7076C26.191 26.9136 27.3053 27.4768 26.6874 28.3683C27.5577 28.8256 28.8722 29.3113 29.9565 30.2388C30.3926 30.602 30.8534 30.998 31.2668 31.4629C32.054 31.5855 31.97 31.648 32.5534 32.0065C34.269 33.0584 37.0201 35.145 38.6148 36.6223C38.8895 36.7827 39.0015 36.8983 39.2232 37.0146C39.2579 37.081 39.2673 37.0964 39.2596 37.1144C39.1834 37.3073 39.1863 37.3129 39.1174 37.4665C39.2035 37.5616 39.3639 37.6506 39.4598 37.7339C39.5494 37.7618 39.5494 37.7189 39.7033 37.6811C39.9034 37.8686 40.1514 38.0196 40.2404 38.0107C40.5118 37.9419 40.4655 37.998 40.6949 37.7414C40.7775 37.6564 40.9157 37.7425 40.9157 37.7425C41.0018 37.6414 41.187 37.4399 41.4339 37.2943C41.6308 37.1782 42.0068 37.1653 42.0068 37.1653C42.1327 37.1664 42.109 37.2954 42.0981 37.3375C41.9559 37.4108 41.6547 37.4915 41.4854 37.6162C41.117 37.9972 40.8285 38.5113 40.8285 38.5113C41.5702 38.41 42.0259 38.594 42.644 38.5231C42.9812 38.5036 43.2299 38.5253 43.5839 38.2691C43.5839 38.2691 43.9242 38.0269 44.229 37.8984C44.5251 37.7693 44.8061 37.8382 45.0667 38.0274C45.2507 38.2351 45.3616 38.2362 45.0817 38.5295C44.9806 38.6433 44.8341 38.7705 44.648 38.9547C44.3206 39.2782 43.8799 39.7093 43.4237 40.0661C42.9616 40.4268 42.4373 40.7508 42.11 40.8994C41.2842 41.4927 41.4791 41.3376 40.8298 41.9257C40.7478 41.9991 40.5304 42.1302 40.425 42.2002C40.1689 42.3683 40.089 42.2281 39.922 41.9203C39.922 41.9203 39.8457 41.8053 39.7196 41.5595C39.5819 41.2915 39.4785 40.9849 39.5204 40.99C39.3665 40.9705 38.6739 40.1586 38.6722 39.9845C38.5257 39.9509 37.901 39.3461 37.8787 39.2305L37.3253 38.7868C36.6921 38.9183 36.5469 38.5251 34.8747 37.3386C34.6839 37.3352 34.3892 37.2322 33.9667 36.9189C33.2122 36.3145 31.4019 34.9471 31.095 34.7908C30.7654 34.6229 30.3716 34.4648 30.13 34.2654C29.7681 34.1988 29.5702 34.1609 29.3892 34.1104C29.2042 34.0598 29.0359 33.9943 28.5677 33.9316C27.8055 33.8369 27.0149 33.5214 26.2623 33.1447C25.9061 32.9758 25.5958 32.8897 25.2891 32.7578C24.6009 32.4673 24.011 32.2056 23.5538 32.0999C23.3793 32.0827 22.5501 31.8339 22.1153 31.5801C21.9645 31.5024 21.8772 31.4282 21.7782 31.4055C21.5499 31.3529 21.4034 31.4432 21.3002 31.4779C20.7424 31.7685 20.2202 32.0195 19.7377 32.2791C19.2886 32.5192 18.8751 32.7687 18.4369 33.021C18.0416 33.2493 17.585 33.4645 17.1156 33.6887C17.1156 33.6887 15.7771 34.3595 15.0461 34.6203C14.4118 35.1381 13.1153 36.0339 12.324 36.4775C11.9321 36.6638 11.1709 37.1461 10.8197 37.254C10.6193 37.4153 9.90552 37.9246 9.34667 38.3447C8.91482 38.6677 8.58859 38.9401 8.58859 38.9401C8.33777 39.165 8.35484 39.2718 7.87797 39.0692C7.74553 39.178 7.64329 39.2457 7.55812 39.3082C7.21369 39.5581 7.18442 39.4978 7.05855 39.4913C6.81842 39.6991 6.78822 39.5916 6.5783 39.8308C6.44041 40.0443 6.58149 39.9933 6.29071 40.0968C6.22937 40.1205 6.20029 40.1946 6.15302 40.2357C5.91927 40.4281 5.91833 40.9722 5.35835 41.011C5.03419 41.2423 5.1171 41.5216 4.86947 41.5094C4.88467 41.7494 4.43125 42.0996 4.34946 42.0985C3.63546 42.3448 3.58593 41.8199 2.7288 42.2116C2.61793 42.2625 2.45529 42.4026 2.24105 42.4431C1.86417 42.5142 1.40868 42.4397 1.13085 42.2246C0.693562 41.8874 0.290978 41.237 0.290978 41.237C0.151969 40.9086 0.232823 40.7009 0.666735 40.3904C0.847579 40.2754 0.880971 40.1893 1.18469 40.1685C1.33552 40.1115 1.29444 40.1987 1.56383 40.1021C1.71991 40.046 1.71991 40.086 2.03432 40.0591C2.10636 40.0105 2.20766 39.9933 2.34329 39.9492C2.59205 39.8672 2.83442 39.7759 2.83442 39.7759C2.83442 39.7759 2.89783 39.7123 3.13701 39.735C3.33943 39.652 3.54729 39.529 3.65385 39.4913C3.62683 39.1707 3.66135 39.1857 3.80993 39.0566C3.99508 38.897 4.02848 38.923 4.16636 39.0219C4.22452 38.9883 4.25247 38.9769 4.24609 38.9281C4.22339 38.7611 4.08025 38.6825 4.1234 38.3145C4.05981 38.167 3.96619 37.9851 3.98664 37.8751C4.01685 37.7566 4.04592 37.6993 4.11796 37.6616C4.1945 37.6209 4.21926 37.6759 4.26016 37.7219C4.33332 37.807 4.3926 38.0592 4.3926 38.0592C4.41849 38.3436 4.50666 38.7118 4.78768 38.5039C4.95352 38.3359 4.98579 37.8881 5.32384 37.9839L5.56508 38.1937C5.76975 38.0012 5.77951 38.0012 5.9022 37.9237C5.9022 37.9237 5.71047 37.7299 5.87856 37.5791C5.99374 37.4767 6.13257 37.4033 6.37926 37.13C7.05648 36.3817 7.40429 36.0509 8.13667 35.4478C9.59786 34.2461 11.2603 33.4032 12.3167 32.9841C12.6611 32.5468 12.9962 32.2562 13.7606 32.1829C14.6694 30.6483 16.4095 29.2779 16.8091 29.0594C17.1342 28.4701 17.2753 28.5328 17.7006 28.4144C18.0375 28.1443 18.114 28.1443 18.2649 27.8621C18.4114 27.2798 17.9268 25.7237 19.1638 25.6451C19.4266 25.2738 19.361 25.3629 19.6538 25.012C19.4557 24.5231 19.3739 24.1141 19.3201 23.7618C19.3103 23.7209 18.8291 23.3817 18.9657 22.939C18.7612 22.6957 18.3789 22.1278 18.2594 21.8618C18.2046 21.863 18.1592 21.8423 18.099 21.8341C18.0365 21.8241 17.9589 21.8277 17.8718 21.8202C17.6792 22.3173 17.4693 22.3543 17.1267 22.464C16.5151 23.7674 16.2998 24.3192 14.5694 25.3967C13.8824 26.1659 13.6627 27.0228 13.6659 27.0101C13.5475 27.2641 13.5894 27.6196 13.6518 27.8102C13.5614 28.0923 13.5851 28.1203 13.5851 28.1203C13.6228 28.2268 13.7209 28.3679 13.8413 28.3979C14.0492 28.4529 14.257 28.444 14.245 28.6755C14.2171 28.9652 13.837 28.9177 13.6571 28.8855C12.9647 28.7755 13.1834 28.3244 12.7407 28.475C12.4015 28.6969 12.2745 29.3516 11.7209 29.2667C11.6477 29.2183 11.6702 29.0751 11.7198 28.9718C11.7974 28.8102 11.9351 28.6767 11.8533 28.6161C11.4924 28.7316 11.132 28.8491 10.7722 28.9684C10.433 29.0609 10.0614 28.8918 10.3953 28.6688C10.5505 28.6086 10.7722 28.533 11.0457 28.3578C11.0457 28.3578 11.1866 28.166 10.9165 28.2619C10.6214 28.3673 10.1864 28.433 9.87419 28.3986C9.87419 28.3986 9.22698 28.3137 9.14406 28.2628C9.06002 28.212 8.98367 28.012 9.18609 28.0131C9.44234 28.0154 10.0841 27.9398 10.5816 27.8073C10.8217 27.7137 11.2784 27.4436 11.5346 27.3164C11.5346 27.3164 11.8124 26.9116 11.9653 26.8318C12.2205 26.5381 12.4358 26.3645 12.6619 26.064C12.8827 25.6083 13.111 24.8872 13.8421 23.7704C14.1801 23.2557 14.6001 22.6561 15.1288 22.12C15.1288 22.12 15.2655 21.2619 15.9537 20.6513C16.1056 20.2937 16.336 19.8727 16.5632 19.4829C16.6515 19.3332 16.7354 19.203 16.8194 19.0608C17.0327 18.726 17.2567 18.1026 18.0879 18.0045C18.0879 18.0045 18.4433 17.7418 18.58 17.5552C18.7933 17.3732 18.7447 17.0901 18.9181 16.8907C18.6532 16.6324 17.976 16.1467 17.9101 15.4715C17.8401 14.7555 18.0953 14.1664 18.5282 13.7304C19.0085 13.2502 19.5146 13.0101 20.1294 13.0466C20.897 13.1607 21.0424 13.4149 21.2869 13.6668C21.5215 13.9058 21.6088 13.752 21.7078 14.0319C22.3518 14.2032 22.3162 14.1278 22.3108 14.6016C22.4098 14.735 22.5756 14.859 22.5734 15.1357C22.7899 14.6866 22.8328 14.6039 23.4112 14.1096C23.548 13.7079 23.6408 13.3128 23.7609 12.9112C23.8736 12.5397 24.0138 12.1574 24.1224 11.8698C24.0072 11.0579 24.2438 10.9234 24.5595 10.2117C24.5036 10.1137 24.5156 10.0858 24.5392 9.9252C24.6619 9.45471 24.8536 8.83226 24.9677 8.4263C24.9677 8.4263 25.0054 8.26478 25.1724 8.25296C25.3168 7.73932 25.5333 6.78314 25.5697 6.58823C25.7183 6.05095 25.6224 5.87855 25.5084 5.57595C25.4718 5.4769 25.4888 5.33583 25.4256 5.22589C25.2457 4.91261 25.0521 4.50552 24.9208 4.21475C24.8356 4.02959 24.7009 3.33173 24.7009 3.33173C24.5854 2.97548 24.6856 3.33191 24.6856 3.33191Z" fill="#1D2939"/>
</g>
<defs>
<clipPath id="clip0_2427_9505">
<rect width="45.0257" height="42" fill="white" transform="translate(0.226318 0.467407)"/>
</clipPath>
</defs>
</svg>
