<svg width="43" height="43" viewBox="0 0 43 43" fill="none" xmlns="http://www.w3.org/2000/svg">
<g clip-path="url(#clip0_2427_9535)">
<path fill-rule="evenodd" clip-rule="evenodd" d="M18.0332 20.6736L13.3463 20.8405L17.7966 21.0878L18.0332 20.6736ZM17.4726 21.6585L12.7746 21.8256L17.2414 22.0738L17.4726 21.6585ZM16.9119 22.6516L12.2198 22.8164L16.6812 23.0643L16.9119 22.6516ZM16.3628 23.6398L11.6649 23.8071L16.121 24.0546L16.3628 23.6398ZM22.1058 15.7024L16.1238 15.9153L22.1228 16.2487L22.1058 15.7024ZM22.0679 14.7249L16.694 14.9134L22.0849 15.2226L22.0679 14.7249ZM22.0295 13.7821L17.2416 13.9397L22.0526 14.2068L22.0295 13.7821ZM21.9973 12.8142L17.8005 12.9546L22.0139 13.2034L21.9973 12.8142ZM21.9701 12.0318H18.3199L21.9755 12.2257L21.9701 12.0318ZM15.7967 24.6275L11.1101 24.7972H15.7011L15.7967 24.6275Z" fill="#1D2939"/>
<path fill-rule="evenodd" clip-rule="evenodd" d="M31.6797 12.0634H24.9255L24.734 12.4025L28.1139 12.5818C28.1536 12.5818 28.1536 12.638 28.0969 12.638L24.537 12.757L24.1936 13.3579L27.5505 13.5562C27.5956 13.5619 27.5845 13.6237 27.545 13.6237L23.9792 13.741L23.6474 14.3164L26.9988 14.5025C27.072 14.5082 27.072 14.5703 26.9988 14.5703L23.4388 14.6951L23.1009 15.2969L26.4412 15.4885C26.5144 15.4941 26.5089 15.5617 26.4412 15.5617L22.8813 15.6885L22.5374 16.2829L25.8832 16.4688C25.9337 16.4744 25.9398 16.5365 25.872 16.5365L15.6143 16.8801L25.3482 17.4209C25.4099 17.4209 25.4045 17.4998 25.3367 17.4998L15.0624 17.8661L24.7963 18.4067C24.8414 18.4067 24.8525 18.4799 24.7848 18.4799L14.4935 18.8516L24.2274 19.3924C24.2671 19.3981 24.3061 19.4713 24.222 19.477L13.947 19.8426L23.6807 20.3832C23.7088 20.3889 23.7369 20.4621 23.6696 20.4621L18.4984 20.6464L18.5154 21.1131L23.1231 21.3691C23.1567 21.3748 23.1737 21.4424 23.1116 21.4424L18.5324 21.6051L18.5548 22.1272L22.5544 22.3494C22.5936 22.3551 22.6106 22.434 22.5429 22.434L18.5772 22.5732L18.5945 23.1461L22.0025 23.3354C22.0417 23.3409 22.0531 23.4141 21.9855 23.4141L18.6114 23.5346L18.6339 24.1647L21.4504 24.3211C21.49 24.3268 21.49 24.3946 21.4336 24.3946L18.6452 24.4955L18.6566 24.7663H27.7483C30.1591 24.7663 32.3219 23.0088 32.7276 21.6117C33.1335 20.2148 33.1335 18.9529 31.1956 18.3221C32.2774 18.0742 34.1585 16.8542 34.5304 15.1675C34.8677 13.6351 34.3047 12.0691 31.6797 12.0634ZM27.1066 21.8468H24.3128L25.8899 19.0527H27.9629C30.1035 19.0527 29.0668 21.8468 27.1066 21.8468ZM30.7228 15.8528C30.6326 16.1907 29.9562 17.047 29.1006 17.047H27.0275L28.3567 14.7038H29.4158C30.7674 14.7489 30.8125 15.515 30.7228 15.8528ZM41.9139 28.815C41.9139 27.7322 41.0138 26.8254 39.9311 26.8254C38.8203 26.8254 37.9134 27.7466 37.9134 28.8784C37.9123 29.1446 37.9639 29.4084 38.0653 29.6545C38.1666 29.9007 38.3157 30.1244 38.504 30.3126C38.6922 30.5008 38.9159 30.6499 39.1621 30.7512C39.4083 30.8526 39.6721 30.9042 39.9383 30.903C40.7604 30.903 41.5409 30.3406 41.7729 29.5743H40.7464C40.5425 29.8977 40.2758 30.0452 39.9097 30.0452C39.4459 30.0452 39.0314 29.7288 38.8976 29.2788H41.8642C41.8997 29.0612 41.9139 28.9555 41.9139 28.815ZM38.8697 28.5439C39.0033 28.0166 39.4251 27.6791 39.9453 27.6791C40.4658 27.6791 40.8735 28.0096 40.9999 28.5439H38.8697ZM28.5863 27.013V27.3287C28.2913 27.0123 27.8638 26.8324 27.4067 26.8324C26.3943 26.8324 25.5313 27.6969 25.5313 28.8219C25.5313 29.8833 26.2948 30.8353 27.4267 30.8353C27.9259 30.8353 28.3055 30.72 28.6639 30.3123V30.8115H29.522V27.013H28.5863ZM27.5385 30.0301C27.2258 30.0301 26.926 29.9059 26.7049 29.6848C26.4838 29.4638 26.3596 29.1639 26.3596 28.8512C26.3596 28.5386 26.4838 28.2387 26.7049 28.0176C26.926 27.7965 27.2258 27.6723 27.5385 27.6723C27.8512 27.6723 28.151 27.7965 28.3721 28.0176C28.5932 28.2387 28.7174 28.5386 28.7174 28.8512C28.7174 29.1639 28.5932 29.4638 28.3721 29.6848C28.151 29.9059 27.8512 30.0301 27.5385 30.0301ZM3.01909 26.8252C2.63255 26.8252 2.33731 26.9587 2.01374 27.2893V26.9167H1.14893V30.8115H2.08412V28.9764C2.08412 28.4774 2.12617 27.6828 2.81515 27.6828C3.46185 27.6828 3.53223 28.428 3.53223 28.906V30.8113H4.4672V28.7232C4.4672 28.1748 4.42515 27.9148 4.27742 27.6054C4.05953 27.1415 3.54639 26.8252 3.01909 26.8252ZM8.82897 28.815C8.82897 27.7322 7.92907 26.8254 6.84637 26.8254C5.73555 26.8254 4.82869 27.7466 4.82869 28.8784C4.82759 29.1445 4.87921 29.4083 4.98057 29.6545C5.08193 29.9006 5.23103 30.1242 5.41925 30.3125C5.60748 30.5007 5.83111 30.6498 6.07724 30.7511C6.32338 30.8525 6.58715 30.9041 6.85334 30.903C7.67588 30.903 8.45615 30.3406 8.68821 29.5743H7.66194C7.45799 29.8977 7.19085 30.0452 6.82523 30.0452C6.36134 30.0452 5.94647 29.7288 5.81291 29.2788H8.77951C8.81502 29.0612 8.82897 28.9555 8.82897 28.815ZM5.78502 28.5439C5.91858 28.0166 6.34042 27.6791 6.86075 27.6791C7.38107 27.6791 7.78875 28.0096 7.91535 28.5439H5.78502ZM24.2132 30.8082H25.1482V25.6128H24.2132V30.8082ZM31.9887 26.8252C31.602 26.8252 31.3065 26.9587 30.9831 27.2893V26.9167H30.1183V30.8115H31.0537V28.9764C31.0537 28.4774 31.0958 27.6828 31.7848 27.6828C32.4313 27.6828 32.5018 28.428 32.5018 28.906V30.8113H33.4368V28.7232C33.4368 28.1748 33.3948 27.9148 33.247 27.6054C33.0291 27.1415 32.516 26.8252 31.9887 26.8252ZM35.7709 27.683C36.1995 27.683 36.4455 27.8238 36.6777 28.2173H37.7319C37.4439 27.3808 36.7059 26.8252 35.8057 26.8252C34.6668 26.8252 33.7528 27.732 33.7528 28.85C33.7528 29.9748 34.6738 30.9028 35.8057 30.9028C36.0945 30.9013 36.3797 30.8399 36.6435 30.7225C36.9073 30.6051 37.1438 30.4343 37.3382 30.2208C37.5352 30.0029 37.6055 29.8763 37.7319 29.532H36.6777C36.4594 29.8693 36.1786 30.045 35.8271 30.045C35.173 30.045 34.6882 29.5388 34.6882 28.8638C34.6882 28.1822 35.1521 27.683 35.7709 27.683ZM12.4028 29.293L11.7407 26.9169H10.9883L10.3189 29.293L9.52731 26.9169H8.70237L10.0028 30.8115H10.6017L11.3611 28.2879L12.0991 30.8115H12.7277L13.9747 26.9169H13.2016L12.4028 29.293ZM17.4124 26.8293C16.9555 26.8293 16.528 27.0093 16.2327 27.3254V25.613H15.2975V30.8082H16.1552V30.3093C16.5138 30.7169 16.8934 30.832 17.3926 30.832C18.5245 30.832 19.288 29.8802 19.288 28.8187C19.2882 27.6939 18.4249 26.8293 17.4124 26.8293ZM17.2806 30.0301C16.9679 30.0301 16.668 29.9059 16.447 29.6848C16.2259 29.4638 16.1017 29.1639 16.1017 28.8512C16.1017 28.5386 16.2259 28.2387 16.447 28.0176C16.668 27.7965 16.9679 27.6723 17.2806 27.6723C17.5932 27.6723 17.8931 27.7965 18.1142 28.0176C18.3353 28.2387 18.4595 28.5386 18.4595 28.8512C18.4595 29.1639 18.3353 29.4638 18.1142 29.6848C17.8931 29.9059 17.5932 30.0301 17.2806 30.0301ZM22.6533 27.013V27.3287C22.3581 27.0123 21.9308 26.8324 21.4737 26.8324C20.4614 26.8324 19.5978 27.6969 19.5978 28.8219C19.5978 29.8833 20.3616 30.8353 21.4933 30.8353C21.9925 30.8353 22.372 30.72 22.7307 30.3123V30.8115H23.5883V27.013H22.6533ZM21.6057 30.0301C21.2931 30.0301 20.9932 29.9059 20.7721 29.6848C20.551 29.4638 20.4268 29.1639 20.4268 28.8512C20.4268 28.5386 20.551 28.2387 20.7721 28.0176C20.9932 27.7965 21.2931 27.6723 21.6057 27.6723C21.9184 27.6723 22.2182 27.7965 22.4393 28.0176C22.6604 28.2387 22.7846 28.5386 22.7846 28.8512C22.7846 29.1639 22.6604 29.4638 22.4393 29.6848C22.2182 29.9059 21.9184 30.0301 21.6057 30.0301Z" fill="#1D2939"/>
</g>
<defs>
<clipPath id="clip0_2427_9535">
<rect width="42" height="42" fill="white" transform="translate(0.531494 0.467407)"/>
</clipPath>
</defs>
</svg>
