<svg width="43" height="43" viewBox="0 0 43 43" fill="none" xmlns="http://www.w3.org/2000/svg">
<g clip-path="url(#clip0_2427_9494)">
<path d="M28.4777 35.4675C26.8326 35.4691 25.199 35.1981 23.6463 34.6659C22.6319 34.3142 21.6626 33.8485 20.7578 33.2782C19.6983 32.6295 18.7302 31.8475 17.8782 30.9524C16.0721 29.0955 14.8412 26.775 14.3284 24.2604C14.2898 24.0702 14.2948 23.874 14.3429 23.6859C14.3911 23.4978 14.4812 23.3225 14.6068 23.1725C14.7325 23.0226 14.8905 22.9018 15.0695 22.8188C15.2485 22.7358 15.4441 22.6926 15.6421 22.6924H18.8595C19.2151 22.6924 19.556 22.8307 19.8074 23.0769C20.0589 23.323 20.2001 23.6569 20.2001 24.0049C20.2001 24.353 20.0589 24.6869 19.8074 24.933C19.556 25.1792 19.2151 25.3174 18.8595 25.3174H17.4045C17.934 26.7481 18.7612 28.0556 19.8337 29.1569C20.5183 29.8814 21.3101 30.5184 22.1984 31.0644C22.9384 31.5317 23.7213 31.9062 24.5382 32.1897C25.805 32.6233 27.1375 32.844 28.4795 32.8424C34.9714 32.8424 40.2533 27.7394 40.2533 21.4674C40.2533 15.1954 34.9714 10.0924 28.4795 10.0924C26.2577 10.0872 24.0806 10.7028 22.2038 11.8669C19.9668 13.2011 18.2694 15.2511 17.3992 17.6699C17.3413 17.8328 17.2513 17.9828 17.1342 18.1116C17.0171 18.2403 16.8752 18.3453 16.7167 18.4203C16.3966 18.5719 16.0281 18.5929 15.6922 18.4784C15.5259 18.4218 15.3726 18.3336 15.2411 18.219C15.1096 18.1043 15.0024 17.9655 14.9258 17.8103C14.7709 17.4968 14.7495 17.136 14.8664 16.8072C15.9371 13.8219 18.0276 11.29 20.7846 9.6392C23.0861 8.21426 25.7546 7.46093 28.4777 7.46745C36.4478 7.46745 42.9326 13.7482 42.9326 21.4674C42.9326 29.1867 36.4478 35.4675 28.4777 35.4675Z" fill="#1D2939"/>
<path d="M14.4891 35.4674C6.51898 35.4674 0.0341797 29.1867 0.0341797 21.4674C0.0341797 13.7482 6.51898 7.46741 14.4891 7.46741C17.24 7.46741 19.9086 8.22341 22.2019 9.65141C24.9506 11.301 27.0339 13.8284 28.1004 16.8072C28.2173 17.136 28.1959 17.4968 28.0411 17.8102C27.8862 18.1236 27.6105 18.364 27.2746 18.4784C26.9388 18.5928 26.5702 18.5719 26.2501 18.4203C25.93 18.2687 25.6845 17.9987 25.5676 17.6699C24.702 15.257 23.0117 13.2108 20.7827 11.8774C18.9014 10.7075 16.7178 10.0882 14.4891 10.0924C7.99719 10.0924 2.71533 15.1954 2.71533 21.4674C2.71533 27.7394 7.99719 32.8424 14.4891 32.8424C15.8422 32.8424 17.1703 32.6237 18.4358 32.1879C19.2514 31.9052 20.0305 31.5305 20.7577 31.0714C21.6281 30.5407 22.4237 29.9006 23.1242 29.1674C24.2006 28.0627 25.0308 26.751 25.5623 25.3157H24.1073C23.7518 25.3157 23.4108 25.1774 23.1594 24.9312C22.908 24.6851 22.7667 24.3513 22.7667 24.0032C22.7667 23.6551 22.908 23.3212 23.1594 23.0751C23.4108 22.8289 23.7518 22.6907 24.1073 22.6907H27.3247C27.5228 22.6908 27.7183 22.734 27.8973 22.817C28.0764 22.9 28.2344 23.0208 28.36 23.1707C28.4856 23.3207 28.5757 23.496 28.6239 23.6841C28.672 23.8722 28.677 24.0684 28.6384 24.2587C28.1233 26.7782 26.8887 29.103 25.0779 30.9629C24.2251 31.8568 23.2564 32.6375 22.1965 33.2852C21.2969 33.8511 20.3337 34.3138 19.3259 34.6642C17.7715 35.1974 16.1362 35.469 14.4891 35.4674Z" fill="#1D2939"/>
</g>
<defs>
<clipPath id="clip0_2427_9494">
<rect width="42.8983" height="42" fill="white" transform="translate(0.0341797 0.467407)"/>
</clipPath>
</defs>
</svg>
