<svg width="44" height="43" viewBox="0 0 44 43" fill="none" xmlns="http://www.w3.org/2000/svg">
<g clip-path="url(#clip0_2427_9500)">
<path d="M42.9897 12.7175C32.2097 13.659 25.6123 14.5008 20.9382 15.5316C20.8522 15.5504 20.7739 15.5937 20.713 15.6559C20.6521 15.7182 20.6113 15.7968 20.5958 15.8816C20.5804 15.9665 20.5909 16.054 20.626 16.1331C20.6612 16.2121 20.7194 16.2793 20.7934 16.326L25.5194 19.3185C25.5793 19.3561 25.6474 19.3792 25.7182 19.3862C25.789 19.3932 25.8605 19.3838 25.9269 19.3588L33.4484 16.4678C35.8936 15.6593 39.0663 14.7493 42.7359 13.6941L43.1542 13.5733C43.2605 13.5427 43.3514 13.4746 43.4095 13.3821C43.4676 13.2897 43.4887 13.1795 43.4687 13.0728C43.4258 12.8523 43.256 12.7123 42.9897 12.7175ZM16.6787 21.7283C16.7647 21.6932 16.8373 21.6326 16.8864 21.5551C16.9354 21.4775 16.9585 21.3869 16.9524 21.2959C16.9463 21.2049 16.9113 21.118 16.8523 21.0475C16.7933 20.9769 16.7132 20.9261 16.6233 20.9023L12.4425 19.7805C12.3635 19.7596 12.2802 19.7596 12.2012 19.7805C9.77927 20.4619 7.47269 21.4878 5.35535 22.8256C3.21043 24.1678 1.54633 25.6885 0.409526 27.3441C0.364589 27.4098 0.338713 27.4863 0.334651 27.5653C0.33059 27.6443 0.348496 27.723 0.386462 27.7928C0.424428 27.8627 0.481034 27.9211 0.55025 27.962C0.619467 28.0028 0.698704 28.0245 0.779524 28.0248H7.87026C7.9455 28.0248 8.01951 28.0062 8.08544 27.9707C8.15137 27.9352 8.20708 27.884 8.24741 27.8218C8.76398 27.022 9.64161 26.1208 10.8017 25.2038C12.3764 23.8458 14.2979 22.7083 16.6787 21.7283ZM22.1 23.5641L18.5555 22.3478C18.4456 22.3109 18.3254 22.3165 18.2195 22.3635C17.1401 22.8335 16.1124 23.4099 15.1523 24.0838C13.624 25.1321 12.1279 26.511 10.7033 28.184C10.6489 28.248 10.6142 28.3259 10.6035 28.4085C10.5927 28.4911 10.6062 28.575 10.6424 28.6504C10.6786 28.7257 10.7361 28.7894 10.808 28.8339C10.8799 28.8784 10.9633 28.9019 11.0483 28.9016H17.6833C17.8406 28.9016 17.9871 28.821 18.0676 28.6863C18.9166 27.288 20.3179 25.818 22.2341 24.3165C22.2962 24.2677 22.3439 24.2035 22.3722 24.1306C22.4005 24.0577 22.4083 23.9787 22.3949 23.9018C22.38 23.8253 22.345 23.7538 22.2933 23.6946C22.2415 23.6354 22.1749 23.5904 22.1 23.5641ZM14.9878 14.0931C14.918 14.0508 14.8375 14.0284 14.7554 14.0283H0.577544C0.469177 14.0276 0.36426 14.0656 0.282325 14.135C0.200391 14.2045 0.147022 14.3007 0.132156 14.4058C0.117289 14.5109 0.141938 14.6177 0.201513 14.7063C0.261088 14.7949 0.351529 14.8593 0.455999 14.8876L14.6196 18.811C20.5397 20.672 26.3505 22.8512 32.0256 25.3386C32.1297 25.3837 32.2475 25.3884 32.3551 25.3517C32.4626 25.315 32.5519 25.2396 32.6047 25.1408C32.6573 25.0423 32.6698 24.9279 32.6396 24.8207C32.6094 24.7135 32.5388 24.6215 32.4421 24.5633L14.9878 14.0931Z" fill="#1D2939"/>
</g>
<defs>
<clipPath id="clip0_2427_9500">
<rect width="42.8983" height="42" fill="white" transform="translate(0.130127 0.467407)"/>
</clipPath>
</defs>
</svg>
